<svg xmlns="http://www.w3.org/2000/svg" viewBox="0 0 256 256">
  <rect width="256" height="256" rx="56" fill="#071614"></rect>

  <!-- wellness person -->
  <circle cx="128" cy="78" r="25" fill="#65f6c8"></circle>

  <path d="M91 154c10-35 22-52 37-52s27 17 37 52" fill="none" stroke="#65f6c8" stroke-width="18" stroke-linecap="round"></path>

  <!-- leaves -->
  <path d="M76 145c-28-4-43-20-45-45 27 1 47 15 51 40" fill="#35c9a0"></path>
  <path d="M180 145c28-4 43-20 45-45-27 1-47 15-51 40" fill="#35c9a0"></path>

  <!-- AI circuit -->
  <circle cx="128" cy="143" r="43" fill="none" stroke="#35c9a0" stroke-width="5"></circle>

  <circle cx="128" cy="143" r="8" fill="#65f6c8"></circle>
  <circle cx="94" cy="128" r="6" fill="#65f6c8"></circle>
  <circle cx="162" cy="128" r="6" fill="#65f6c8"></circle>
  <circle cx="101" cy="164" r="6" fill="#65f6c8"></circle>
  <circle cx="155" cy="164" r="6" fill="#65f6c8"></circle>

  <path d="M94 128l34 15 34-15M101 164l27-21 27 21" fill="none" stroke="#65f6c8" stroke-width="4"></path>

  <!-- orbit -->
  <path d="M54 181c30 35 119 47 151 4" fill="none" stroke="#35c9a0" stroke-width="5" stroke-linecap="round"></path>

  <!-- sparkle -->
  <path d="M194 57l5 13 13 5-13 5-5 13-5-13-13-5 13-5z" fill="#65f6c8"></path>
</svg>